<svg width="32" height="32" fill="none" xmlns="http://www.w3.org/2000/svg"><g clip-path="url(#clip0)" fill="#fff"><path d="M29.57 10.758c.1-.534.15-1.077.15-1.62a9.144 9.144 0 00-17.74-3.106 4.572 4.572 0 00-6.136 3.18 6.858 6.858 0 001.017 13.64h5.715a1.143 1.143 0 100-2.285H6.861a4.572 4.572 0 010-9.144c.632 0 1.143-.511 1.143-1.143a2.286 2.286 0 013.886-1.628 1.143 1.143 0 001.93-.631 6.85 6.85 0 1113.373 2.907c-.131.477.06.985.473 1.258a4.572 4.572 0 01-2.517 8.38h-3.43a1.143 1.143 0 000 2.287h3.43a6.858 6.858 0 004.42-12.095z"/><path d="M23.645 24.33a1.143 1.143 0 00-1.588 0l-3.766 3.763v-16.67a1.143 1.143 0 10-2.286 0v16.67L12.24 24.33a1.143 1.143 0 00-1.616 1.616l5.715 5.714c.445.447 1.17.448 1.616.002 0 0 .002 0 .002-.002l5.715-5.714a1.143 1.143 0 00-.028-1.616z"/></g><defs><clipPath id="clip0"><path fill="#fff" d="M0 0h32v32H0z"/></clipPath></defs></svg>