<svg width="345" height="80" fill="none" xmlns="http://www.w3.org/2000/svg"><path fill-rule="evenodd" clip-rule="evenodd" d="M24.686 49.8V72h-16.5V27.7c0-4.2 2.733-6.333 8.2-6.4h22.7V34h-14.4v3.1h14.4v12.7h-14.4zm18.988-4.7a7.808 7.808 0 00-.136 1.5v19.1c0 4.2 2.733 6.3 8.2 6.3h28.8V27.7c0-2.526-.959-4.304-2.875-5.335-1.32-.71-3.095-1.065-5.325-1.065h-20.6c-1.871 0-3.422.25-4.652.75-2.366.96-3.548 2.843-3.548 5.65v9.4h16.5V34h4v6.3h-12.3c-1.871.023-3.422.284-4.652.783a6.295 6.295 0 00-1.594.917c-.958.771-1.564 1.804-1.818 3.1zm3.412-31.362V13.3H16.288c-3.541.044-7.635.737-10.974 3.343C1.59 19.55.186 23.715.186 27.7V80h32.5V57.8h2.852v7.9c0 3.98 1.403 8.17 5.176 11.069C44.086 79.36 48.204 80 51.737 80h36.8v-.386c1.507.285 3.006.386 4.411.386h20.6c3.287 0 7.078-.553 10.306-2.715 3.228 2.162 7.019 2.715 10.305 2.715h20.6c1.406 0 2.904-.101 4.411-.386V80h36.8c3.286 0 7.078-.553 10.306-2.715 3.227 2.162 7.019 2.715 10.305 2.715h20.6c3.286 0 7.078-.553 10.306-2.715 3.227 2.162 7.019 2.715 10.305 2.715h20.6c1.406 0 2.904-.101 4.411-.386V80h61.388l-21.56-33.391L344.223 13.3h-61.42v.39c-1.506-.287-3.004-.39-4.411-.39h-20.6c-3.289 0-7.08.562-10.305 2.737-3.226-2.175-7.016-2.737-10.306-2.737h-20.6c-3.289 0-7.08.562-10.305 2.737-3.226-2.175-7.016-2.737-10.306-2.737h-4.3V.6h-32.5v13.09c-1.506-.287-3.004-.39-4.411-.39h-20.6c-3.289 0-7.08.562-10.305 2.737-3.225-2.175-7.016-2.737-10.306-2.737h-20.6c-3.29 0-7.08.562-10.305 2.737-3.225-2.175-7.016-2.737-10.305-2.737h-20.6c-1.482 0-3.065.114-4.652.438zm40.537 8.627c-1.916 1.03-2.875 2.809-2.875 5.335v38c0 2.855 1.263 4.74 3.79 5.654 1.19.43 2.66.646 4.41.646h20.6c2.223 0 3.994-.347 5.313-1.041 1.925-1.014 2.887-2.767 2.887-5.259V47.4h-16.5v12h-4V34h4v8.7h16.5v-15c0-2.526-.958-4.304-2.874-5.335-1.32-.71-3.095-1.065-5.326-1.065h-20.6c-2.23 0-4.005.355-5.325 1.065zM125.959 65.7c0 2.492.963 4.245 2.888 5.259 1.319.694 3.09 1.041 5.312 1.041h20.6c1.751 0 3.221-.215 4.411-.646 2.526-.914 3.789-2.799 3.789-5.654v-9.5h-16.5v3.2h-4V53h20.5V27.7c0-2.9-1.263-4.815-3.789-5.744-1.19-.437-2.66-.656-4.411-.656h-20.6c-2.23 0-4.005.355-5.325 1.065-1.917 1.03-2.875 2.809-2.875 5.335v38zM167.17 72h28.8c2.223 0 3.994-.347 5.313-1.041 1.925-1.014 2.887-2.767 2.887-5.259v-38c0-2.526-.958-4.304-2.874-5.335-1.32-.71-3.096-1.065-5.326-1.065h-12.3V8.6h-16.5V72zm44.086-49.635c-1.917 1.03-2.875 2.809-2.875 5.335v38c0 2.492.963 4.245 2.888 5.259 1.319.694 3.09 1.041 5.312 1.041h20.6c2.223 0 3.994-.347 5.313-1.041 1.925-1.014 2.887-2.767 2.887-5.259v-38c0-2.526-.958-4.304-2.874-5.335-1.32-.71-3.096-1.065-5.326-1.065h-20.6c-2.23 0-4.005.355-5.325 1.065zm41.21 0c-1.916 1.03-2.874 2.809-2.874 5.335v38c0 2.492.963 4.245 2.888 5.259 1.319.694 3.09 1.041 5.312 1.041h20.6c1.751 0 3.221-.215 4.411-.646 2.526-.914 3.789-2.799 3.789-5.654v-38c0-2.9-1.263-4.815-3.789-5.744-1.19-.437-2.66-.656-4.411-.656h-20.6c-2.23 0-4.005.355-5.326 1.065zm38.337-1.065V72h15.9v-7.8l5.4 7.8h17.4l-16.4-25.4 16.4-25.3h-17.4l-5.4 7.8v-7.8h-15.9zM60.037 59.4h4V53h-4v6.4zm82.422-19.1h4V34h-4v6.3zM183.67 34h4v25.4h-4V34zm41.211 0h4v25.4h-4V34zm41.211 0h4v25.4h-4V34z" fill="#000"/></svg>