<svg width="34" height="28" fill="none" xmlns="http://www.w3.org/2000/svg"><path d="M34 11.008c.001.389-.227.734-.55.895-2.31 1.155-3.517 4.166-7.247 6.166a29.156 29.156 0 00-.268-5.488 2.992 2.992 0 00-.372-1.074c.53-.08 1.089-.158 1.714-.25C23.066 10.094 20.644 8.023 17 8.023c-3.638 0-6.07 2.07-10.277 3.234.618.09 1.171.168 1.714.25-.19.328-.317.691-.372 1.074a29.252 29.252 0 00-.27 5.487c-3.726-2-4.935-5.01-7.245-6.165a.998.998 0 01.446-1.887c2.567 0 9.431-9.962 13.016-9.962C15.2.054 16.27.578 17 1.406A3.977 3.977 0 0119.988.054c3.53 0 10.565 9.962 13.017 9.962.534 0 .993.432.995.992z" fill="#fff"/><path d="M23.963 12.863c-.04-.275-.2-.531-.434-.688-2.03-1.35-3.846-1.395-5.533-.772v9.57a.997.997 0 01-1.992 0v-9.57c-1.687-.623-3.504-.579-5.533.772a1.012 1.012 0 00-.434.688c-.93 6.51.23 15.083 6.963 15.083 6.735 0 7.889-8.604 6.963-15.083z" fill="#fff"/></svg>