<svg width="49" height="49" viewBox="0 0 49 49" fill="none" xmlns="http://www.w3.org/2000/svg">
<rect width="39.47" height="39.47" transform="translate(10.7803 0.564453) rotate(15)" fill="white"/>
<path d="M13.3311 21.9535C12.0594 26.6999 13.8209 31.5422 17.4247 34.4292C17.609 33.6111 17.8961 32.6467 18.3396 31.8216C18.8146 30.9404 21.5235 25.9052 21.5235 25.9052C21.5235 25.9052 21.3515 25.0659 21.6446 23.9721C22.1048 22.2543 23.4442 21.2382 24.684 21.5704C25.7384 21.8529 26.0356 22.7813 25.7815 23.7296C25.4975 24.7895 24.3967 26.1937 23.6556 27.5689C23.0357 28.7206 23.6739 29.9665 24.8869 30.2916C27.0831 30.88 29.318 28.4556 30.2135 25.1136C30.8942 22.5732 29.6926 20.2132 26.5805 19.3793C23.0645 18.4372 20.1714 20.4724 19.3866 23.4013C19.116 24.4112 19.223 25.2031 19.5416 25.8795C19.6881 26.1903 19.6906 26.3001 19.5351 26.5702C19.4223 26.7686 19.1571 27.2478 19.0497 27.4371C18.8938 27.71 18.6278 27.7512 18.3916 27.5717C16.9492 26.4766 16.6702 24.501 17.2044 22.5074C18.0867 19.2147 21.9216 16.0106 27.4288 17.4862C31.8542 18.672 33.9088 22.6549 32.9877 26.0924C31.7693 30.6395 28.3312 33.3591 24.6048 32.3606C23.3535 32.0253 22.3576 31.0335 22.1602 30.1571C22.1602 30.1571 20.7717 32.6474 20.491 33.1249C20.0058 33.9528 19.2854 34.7171 18.659 35.2954C19.641 35.8966 20.7045 36.3531 21.8167 36.651C28.2175 38.3661 34.798 34.5671 36.5134 28.1652C38.2287 21.7636 34.4293 15.1833 28.0285 13.4682C21.6271 11.753 15.0465 15.5519 13.3311 21.9535Z" fill="#CB1F27"/>
</svg>
