<svg width="67" height="67" viewBox="0 0 67 67" fill="none" xmlns="http://www.w3.org/2000/svg">
<rect x="9" y="19.2158" width="39.4689" height="39.4689" transform="rotate(-15 9 19.2158)" fill="#6FD454"/>
<path d="M20.8753 26.2725C21.1154 26.1056 21.3673 26.0422 21.6407 26.1926C22.2485 26.5204 22.8584 26.8469 23.4587 27.196C24.1522 27.5988 24.8278 28.0344 25.5186 28.4472C25.6999 28.5603 25.9065 28.6389 26.0989 28.7371C26.2779 28.8317 26.4552 28.933 26.6278 29.0312C27.0007 29.2656 27.1881 29.6098 27.0785 30.0323C26.9239 30.6362 26.7151 31.2347 26.5261 31.833C26.3686 32.334 26.1909 32.8297 26.0455 33.3321C25.9331 33.7251 26.0449 34.0706 26.404 34.2959C26.9557 34.6391 27.5052 34.9836 28.0762 35.3015C30.1908 36.4759 32.4489 37.2082 34.8676 37.3812C35.8011 37.4503 36.7401 37.4652 37.6745 37.4574C38.5551 37.4496 38.7771 37.2366 38.9606 36.3642C39.1326 35.5551 39.2827 34.7474 39.4501 33.9353C39.4899 33.7398 39.5617 33.5456 39.6316 33.3582C39.7709 32.9724 40.0531 32.7755 40.4555 32.7525C40.5669 32.7447 40.6823 32.729 40.7905 32.74C41.9593 32.8542 43.1252 32.7382 44.2892 32.7363C44.9135 32.7351 45.536 32.7602 46.1554 32.7702C46.4881 32.7733 46.7114 32.93 46.8647 33.2346C47.2968 34.0908 47.6291 34.9848 47.5518 35.9627C47.5181 36.3696 47.3787 36.7894 47.209 37.1616C46.7327 38.1832 46.0394 39.0444 45.2117 39.8051C44.4599 40.4965 43.5584 40.9236 42.5818 41.1425C40.7007 41.5725 38.8013 41.9169 36.8592 41.8985C35.0948 41.8793 33.3562 41.6304 31.6429 41.2197C29.4708 40.6951 27.3794 39.9626 25.4114 38.8902C24.131 38.1958 22.9916 37.3096 21.8832 36.3744C21.213 35.8111 20.5507 35.2518 20.0003 34.5629C19.3753 33.7841 18.9914 32.9085 18.7972 31.9403C18.6208 31.0666 18.5243 30.1891 18.6275 29.2953C18.7119 28.599 18.9622 27.9794 19.4599 27.4799C19.8607 27.0817 20.2803 26.7065 20.6917 26.3219C20.7814 26.3352 20.8302 26.307 20.8753 26.2725Z" fill="white"/>
</svg>
