<svg width="49" height="49" viewBox="0 0 49 49" fill="none" xmlns="http://www.w3.org/2000/svg">
<rect width="39.47" height="39.47" transform="translate(10.7803 0.56543) rotate(15)" fill="white"/>
<path d="M31.9745 14.207L22.4523 12.3552C18.5824 11.6025 14.8218 14.1386 14.0692 18.0085L12.2173 27.5306C11.4647 31.4005 14.0007 35.1611 17.8706 35.9138L27.3927 37.7656C31.2626 38.5183 35.0233 35.9822 35.7759 32.1123L37.6278 22.5902C38.3803 18.7203 35.8443 14.9596 31.9745 14.207ZM33.4059 31.6514C32.9066 34.2185 30.4208 35.8949 27.8537 35.3956L18.3315 33.5438C15.7644 33.0445 14.088 30.5587 14.5873 27.9915L16.4392 18.4694C16.9384 15.9022 19.4243 14.2259 21.9914 14.7251L31.5135 16.577C34.0807 17.0763 35.757 19.5621 35.2578 22.1293L33.4059 31.6514Z" fill="url(#paint0_linear_1314_43)"/>
<path d="M26.1077 18.9672C22.748 18.3138 19.4831 20.5156 18.8297 23.8753C18.1763 27.235 20.378 30.5 23.7378 31.1534C27.0975 31.8068 30.3624 29.605 31.0158 26.2453C31.6693 22.8855 29.4675 19.6206 26.1077 18.9672ZM24.1987 28.7834C22.1424 28.3835 20.7998 26.3925 21.1996 24.3362C21.5995 22.28 23.5906 20.9373 25.6468 21.3372C27.703 21.7371 29.0457 23.7282 28.6458 25.7844C28.246 27.8406 26.2549 29.1833 24.1987 28.7834Z" fill="url(#paint1_linear_1314_43)"/>
<path d="M31.9195 21.6601C32.7258 21.8169 33.5066 21.2903 33.6635 20.484C33.8203 19.6776 33.2937 18.8968 32.4874 18.74C31.681 18.5832 30.9002 19.1097 30.7434 19.9161C30.5866 20.7224 31.1131 21.5032 31.9195 21.6601Z" fill="url(#paint2_linear_1314_43)"/>
<defs>
<linearGradient id="paint0_linear_1314_43" x1="22.645" y1="36.7711" x2="27.1778" y2="13.4641" gradientUnits="userSpaceOnUse">
<stop stop-color="#E09B3D"/>
<stop offset="0.3" stop-color="#C74C4D"/>
<stop offset="0.6" stop-color="#C21975"/>
<stop offset="1" stop-color="#7024C4"/>
</linearGradient>
<linearGradient id="paint1_linear_1314_43" x1="22.6452" y1="36.771" x2="27.178" y2="13.464" gradientUnits="userSpaceOnUse">
<stop stop-color="#E09B3D"/>
<stop offset="0.3" stop-color="#C74C4D"/>
<stop offset="0.6" stop-color="#C21975"/>
<stop offset="1" stop-color="#7024C4"/>
</linearGradient>
<linearGradient id="paint2_linear_1314_43" x1="28.7498" y1="37.9581" x2="33.2826" y2="14.6511" gradientUnits="userSpaceOnUse">
<stop stop-color="#E09B3D"/>
<stop offset="0.3" stop-color="#C74C4D"/>
<stop offset="0.6" stop-color="#C21975"/>
<stop offset="1" stop-color="#7024C4"/>
</linearGradient>
</defs>
</svg>
