<svg width="40" height="40" viewBox="0 0 40 40" fill="none" xmlns="http://www.w3.org/2000/svg">
<rect width="39.47" height="39.47" transform="translate(0.435547 0.435547)" fill="#0A66C2"/>
<g clip-path="url(#clip0_1314_42)">
<path d="M30.6639 8.43555L10.2072 8.43555C9.73734 8.43555 9.28671 8.6222 8.95446 8.95446C8.6222 9.28671 8.43555 9.73734 8.43555 10.2072L8.43555 30.6639C8.43555 31.1338 8.6222 31.5844 8.95446 31.9166C9.28671 32.2489 9.73734 32.4355 10.2072 32.4355L30.6639 32.4355C31.1338 32.4355 31.5844 32.2489 31.9166 31.9166C32.2489 31.5844 32.4355 31.1338 32.4355 30.6639L32.4355 10.2072C32.4355 9.73734 32.2489 9.28671 31.9166 8.95446C31.5844 8.6222 31.1338 8.43555 30.6639 8.43555ZM15.5889 28.8805L11.9805 28.8805L11.9805 17.4189L15.5889 17.4189L15.5889 28.8805ZM13.7822 15.8305C13.3729 15.8282 12.9735 15.7047 12.6343 15.4756C12.2951 15.2465 12.0314 14.9221 11.8764 14.5432C11.7215 14.1644 11.6822 13.7481 11.7636 13.347C11.845 12.9459 12.0433 12.5778 12.3337 12.2893C12.6241 12.0008 12.9934 11.8048 13.395 11.726C13.7967 11.6472 14.2127 11.6891 14.5905 11.8465C14.9683 12.0039 15.2911 12.2697 15.518 12.6104C15.7449 12.951 15.8659 13.3512 15.8655 13.7605C15.8694 14.0346 15.8181 14.3066 15.7146 14.5604C15.6111 14.8141 15.4575 15.0444 15.2631 15.2376C15.0687 15.4308 14.8374 15.5828 14.583 15.6847C14.3285 15.7866 14.0562 15.8362 13.7822 15.8305ZM28.8889 28.8905L25.2822 28.8905L25.2822 22.6289C25.2822 20.7822 24.4972 20.2122 23.4839 20.2122C22.4139 20.2122 21.3639 21.0189 21.3639 22.6755L21.3639 28.8905L17.7555 28.8905L17.7555 17.4272L21.2255 17.4272L21.2255 19.0155L21.2722 19.0155C21.6205 18.3105 22.8405 17.1055 24.7022 17.1055C26.7155 17.1055 28.8905 18.3005 28.8905 21.8005L28.8889 28.8905Z" fill="white"/>
</g>
<defs>
<clipPath id="clip0_1314_42">
<rect width="24" height="24" fill="white" transform="translate(8.43555 8.43555)"/>
</clipPath>
</defs>
</svg>
