<svg width="280" height="68" fill="none" xmlns="http://www.w3.org/2000/svg"><path fill-rule="evenodd" clip-rule="evenodd" d="M46.127 58.385c-1.196.432-2.678.637-4.445.615h-20.6c-5.467 0-8.2-2.1-8.2-6.3V24.1h-4.1V11.5h4.1V8.3h16.5v3.2h20.5v12.6h-20.5v22.3h4.1V27.3h16.4v25.4c0 2.887-1.252 4.782-3.755 5.685zm8 .615h16.5V24.1h-16.5V59zm16.5-38V8.3h-16.5V21h16.5zm-24.5-17.5h-8.745V.3h-32.5v3.2h-4.1v28.6h4.1v20.6c0 3.98 1.404 8.17 5.176 11.069C13.431 66.36 17.548 67 21.082 67h20.555c1.428.015 2.954-.076 4.49-.36V67h81.994l-12.268-19h19.498v4.7c0 3.98 1.404 8.17 5.176 11.069C143.9 66.36 148.017 67 151.551 67h20.555c3.306.034 7.143-.496 10.404-2.702 3.224 2.15 7.007 2.702 10.286 2.702h20.6c1.406 0 2.904-.101 4.411-.386V67h61.388l-21.56-33.391L279.226.3h-61.419v.39c-1.506-.287-3.004-.39-4.411-.39h-20.6c-3.512 0-7.594.64-10.951 3.2h-13.994V.3h-32.5v3.2h-4.1v15.8h-15.415l12.316-19H46.127v3.2zm28.606 4.8V59h15.9v-7.8l5.4 7.8h17.4l-16.4-25.4 16.4-25.3h-17.4l-5.4 7.8V8.3h-15.9zm31.827 25.31l1.383 2.141v-4.274l-1.383 2.133zm32.69-9.509h4.1v28.6c0 4.2 2.733 6.3 8.2 6.3h20.6c2.247.028 4.032-.311 5.356-1.016 1.896-1.01 2.844-2.771 2.844-5.284V27.3h-16.4v19.1h-4.1V24.1h20.5V11.5h-20.5V8.3h-16.5v3.2h-4.1v12.6zm45.345 28.6c0 2.484.957 4.234 2.869 5.249 1.321.7 3.098 1.051 5.331 1.051h20.6c1.751 0 3.221-.215 4.411-.646 2.526-.914 3.789-2.799 3.789-5.654v-38c0-2.9-1.263-4.815-3.789-5.744-1.19-.437-2.66-.656-4.411-.656h-20.6c-1.767 0-3.249.223-4.445.67-1.42.529-2.437 1.372-3.052 2.53-.468.884-.703 1.95-.703 3.2v38zm-48.152-25.4h-20.5V40h20.5V27.3zm89.363-19V59h15.9v-7.8l5.4 7.8h17.4l-16.4-25.4 16.4-25.3h-17.4l-5.4 7.8V8.3h-15.9zM201.096 21h4v25.4h-4V21z" fill="#000"/></svg>