<svg width="48" height="48" fill="none" xmlns="http://www.w3.org/2000/svg"><g clip-path="url(#clip0)" fill="#fff"><path d="M27.894 1.758a1.595 1.595 0 00-1.692.192L10.637 14.4H3.2A3.205 3.205 0 000 17.6v12.8c0 1.764 1.437 3.2 3.2 3.2h7.437l15.561 12.452a1.616 1.616 0 001.696.192c.554-.269.906-.829.906-1.443V3.2c0-.615-.352-1.175-.906-1.443zM9.6 30.4H3.2V17.6h6.4v12.8zm16 11.069L12.8 31.23V16.772l12.8-10.24V41.47zm11.302-28.783a1.598 1.598 0 00-2.262.012 1.6 1.6 0 00.013 2.263c2.416 2.39 3.747 5.6 3.747 9.04 0 3.44-1.331 6.65-3.747 9.04a1.595 1.595 0 00-.013 2.262 1.595 1.595 0 002.262.01C39.932 32.32 41.6 28.305 41.6 24c0-4.304-1.667-8.32-4.698-11.315z"/><path d="M41.415 8.177a1.601 1.601 0 00-2.263.01 1.601 1.601 0 00.01 2.262c3.635 3.606 5.638 8.42 5.638 13.552 0 5.133-2.003 9.946-5.638 13.552a1.601 1.601 0 001.126 2.736c.407 0 .813-.154 1.127-.464C45.66 35.614 48 29.995 48 24.001s-2.339-11.613-6.585-15.824z"/></g><defs><clipPath id="clip0"><path fill="#fff" d="M0 0h48v48H0z"/></clipPath></defs></svg>