<svg width="50" height="46" fill="none" xmlns="http://www.w3.org/2000/svg"><path d="M35.062 15.401L48.08 29.547m0-13.792L35.06 29.9" stroke="#fff" stroke-width="3" stroke-linecap="round"/><path d="M27.894.758a1.595 1.595 0 00-1.692.192L10.637 13.4H3.2A3.205 3.205 0 000 16.6v12.8c0 1.764 1.437 3.2 3.2 3.2h7.437l15.561 12.452a1.616 1.616 0 001.696.192c.554-.269.906-.829.906-1.443V2.2c0-.615-.352-1.175-.906-1.443zM9.6 29.4H3.2V16.6h6.4v12.8zm16 11.069L12.8 30.23V15.772l12.8-10.24V40.47z" fill="#fff"/></svg>