<svg width="264" height="96" fill="none" xmlns="http://www.w3.org/2000/svg"><path fill-rule="evenodd" clip-rule="evenodd" d="M.467 95.2V66.6h.08a16.68 16.68 0 01-.079-1.373V12.7h53v.39c1.505-.287 3.004-.39 4.41-.39h20.6c1.407 0 2.905.103 4.411.39v-.39h32.5v.204a43.338 43.338 0 014.3-.204c3.589 0 6.891 1.117 9.778 3.004l.05.033c3.329-2.433 7.34-3.037 10.783-3.037h4.3V0h32.5v13.09c1.506-.287 3.004-.39 4.411-.39h82.257l-14.613 33.306L263.748 79.4h-82.237c-1.406 0-2.904-.101-4.411-.386v.386h-36.8c-1.401 0-2.9-.097-4.411-.375v.375h-78.01c-1.407 0-2.905-.101-4.412-.386V80.9c0 3.98-1.404 8.17-5.176 11.069-3.373 2.591-7.49 3.231-11.024 3.231H.467zm45-74.5h-16.5v38.1h-4V20.7h-16.5v44.4c.009.534.06 1.034.155 1.5.65 3.2 3.332 4.8 8.045 4.8h12.3v3.2h-20.5v12.6h28.8c5.467 0 8.2-2.1 8.2-6.3V20.7zm4.211 15.8h16.5v-3.1h4v6.3h-12.3c-1.75.021-3.22.251-4.41.69-2.047.753-3.264 2.123-3.653 4.11a7.81 7.81 0 00-.137 1.5v19.1c0 2.855 1.263 4.74 3.79 5.654 1.19.43 2.66.646 4.41.646h28.8V27.1c0-2.9-1.263-4.815-3.789-5.744-1.19-.437-2.66-.656-4.41-.656h-20.6c-1.752 0-3.222.219-4.412.656-2.526.93-3.789 2.844-3.789 5.744v9.4zm57.711 34.9v-38h4v38h16.5V27.1c0-1.867-.933-3.433-2.8-4.7a10.739 10.739 0 00-.269-.17c-1.65-1.02-3.361-1.53-5.131-1.53a33.93 33.93 0 00-4.3.255c-3.371.432-6.038 1.414-8 2.945v-3.2h-16.5v50.7h16.5zM132.1 27.1v38c-.092 2.887 1.171 4.782 3.789 5.684 1.19.41 2.661.616 4.411.616h28.8V8h-16.5v12.7h-12.3c-2.334 0-4.169.38-5.507 1.138-1.834 1.04-2.732 2.795-2.693 5.262zm45 43.654c1.19.43 2.66.646 4.411.646h20.6c1.503 0 2.799-.159 3.888-.476 1.344-.391 2.374-1.024 3.09-1.898.814-.996 1.222-2.304 1.222-3.926v-9.5h-16.5v3.2h-4v-6.4h20.5V27.1c0-1.659-.413-2.995-1.239-4.009-.715-.877-1.74-1.514-3.074-1.908-1.09-.322-2.385-.483-3.887-.483h-20.6c-1.751 0-3.221.219-4.411.656-2.526.93-3.789 2.844-3.789 5.744v38c0 2.855 1.263 4.74 3.789 5.654zm37.422.646h14.8l3.7-8.5 3.7 8.5h14.8l-11.1-25.4 11.1-25.3h-14.8l-3.7 8.5-3.7-8.5h-14.8l11.1 25.3-11.1 25.4zM66.178 58.8h4v-6.4h-4v6.4zM148.6 33.4h4v25.4h-4V33.4zm41.211 6.3h4v-6.3h-4v6.3z" fill="#000"/></svg>